<svg width="71" height="72" viewBox="0 0 71 72" fill="none" xmlns="http://www.w3.org/2000/svg">
    <circle cx="35.5" cy="20" r="20" fill="#F36A3D" />
    <path
        d="M44.8551 22.5771C45.0589 22.3577 45.0462 22.0147 44.8267 21.8109C44.7973 21.7835 44.7649 21.7596 44.7301 21.7393L38.6659 18.2294L31.25 23.9167L36.9394 16.5045L33.4288 10.438C33.2792 10.1787 32.9476 10.0897 32.6883 10.2392C32.5729 10.3058 32.486 10.4126 32.4443 10.5391L26.6955 27.7875C26.6015 28.0718 26.7557 28.3784 27.0399 28.4725C27.1505 28.5091 27.27 28.5092 27.3806 28.4726L44.629 22.7238C44.7156 22.6947 44.7933 22.6443 44.8551 22.5771Z"
        fill="white" />
    <path
        d="M16.3279 68H17.7679C17.9029 68 17.9629 67.925 17.9029 67.79L15.7879 63.425C15.7729 63.38 15.7879 63.335 15.8329 63.335C17.0779 62.96 17.8429 61.955 17.8429 60.56C17.8429 58.73 16.5979 57.5 14.7379 57.5H10.6129C10.5079 57.5 10.4329 57.575 10.4329 57.68V67.82C10.4329 67.925 10.5079 68 10.6129 68H11.9929C12.0979 68 12.1729 67.925 12.1729 67.82V63.56C12.1729 63.515 12.2029 63.485 12.2479 63.485H14.0479C14.0779 63.485 14.1229 63.515 14.1379 63.545L16.1179 67.865C16.1629 67.97 16.2379 68 16.3279 68ZM12.2479 59H14.4979C15.4579 59 16.1029 59.645 16.1029 60.575C16.1029 61.505 15.4579 62.135 14.4979 62.135H12.2479C12.2029 62.135 12.1729 62.105 12.1729 62.06V59.075C12.1729 59.03 12.2029 59 12.2479 59ZM25.8442 63.305C25.6192 61.415 24.6292 60.215 22.5142 60.215C20.9392 60.215 19.7842 61.1 19.3792 62.48C19.2292 62.945 19.1842 63.5 19.1992 64.115C19.1992 64.91 19.3042 65.585 19.5442 66.14C20.0392 67.37 21.1042 68.105 22.6642 68.135C23.9542 68.15 25.0492 67.64 25.6792 66.755C25.7392 66.665 25.7242 66.59 25.6342 66.515L24.7042 65.75C24.6142 65.675 24.5242 65.69 24.4492 65.795C24.0892 66.305 23.5642 66.635 22.8292 66.635C21.8692 66.62 21.2992 66.215 21.0742 65.54C20.9992 65.375 20.9692 65.15 20.9392 64.865C20.9392 64.82 20.9692 64.79 21.0142 64.79H25.7092C25.8142 64.79 25.8892 64.73 25.8892 64.61C25.9042 64.13 25.9042 63.725 25.8442 63.305ZM22.5142 61.715C23.3242 61.715 23.8642 62.15 24.0442 62.855C24.0892 62.99 24.1192 63.2 24.1342 63.425C24.1342 63.47 24.1042 63.5 24.0592 63.5H21.0142C20.9692 63.5 20.9392 63.47 20.9542 63.425C20.9692 63.17 20.9992 62.96 21.0742 62.765C21.2692 62.12 21.7492 61.715 22.5142 61.715ZM30.6895 68.12C32.2345 68.12 33.4945 67.325 33.8845 66.035C33.9295 65.9 33.9445 65.78 33.9595 65.69C33.9745 65.57 33.8995 65.495 33.7945 65.48L32.4445 65.27C32.3395 65.255 32.2645 65.3 32.2345 65.42C32.2345 65.435 32.2345 65.45 32.2195 65.465C32.2195 65.48 32.2195 65.51 32.2045 65.54C32.0395 66.185 31.4545 66.62 30.6895 66.62C29.8945 66.62 29.3695 66.17 29.1745 65.48C29.0995 65.195 29.0395 64.76 29.0395 64.145C29.0395 63.56 29.0995 63.095 29.1895 62.81C29.3695 62.15 29.9095 61.715 30.6895 61.715C31.4545 61.715 32.0095 62.135 32.1895 62.675C32.2195 62.75 32.2345 62.81 32.2495 62.885C32.2645 62.93 32.2645 62.96 32.2645 63.005C32.2945 63.125 32.3695 63.17 32.4745 63.155L33.8245 62.96C33.9295 62.945 34.0045 62.87 33.9895 62.75C33.9745 62.63 33.9445 62.465 33.8845 62.27C33.5245 61.115 32.2945 60.215 30.6895 60.215C29.1445 60.215 27.9445 61.04 27.5245 62.36C27.3745 62.795 27.2845 63.35 27.2845 64.13C27.2845 64.82 27.3445 65.42 27.5245 65.93C27.9595 67.265 29.1445 68.12 30.6895 68.12ZM41.855 63.305C41.63 61.415 40.64 60.215 38.525 60.215C36.95 60.215 35.795 61.1 35.39 62.48C35.24 62.945 35.195 63.5 35.21 64.115C35.21 64.91 35.315 65.585 35.555 66.14C36.05 67.37 37.115 68.105 38.675 68.135C39.965 68.15 41.06 67.64 41.69 66.755C41.75 66.665 41.735 66.59 41.645 66.515L40.715 65.75C40.625 65.675 40.535 65.69 40.46 65.795C40.1 66.305 39.575 66.635 38.84 66.635C37.88 66.62 37.31 66.215 37.085 65.54C37.01 65.375 36.98 65.15 36.95 64.865C36.95 64.82 36.98 64.79 37.025 64.79H41.72C41.825 64.79 41.9 64.73 41.9 64.61C41.915 64.13 41.915 63.725 41.855 63.305ZM38.525 61.715C39.335 61.715 39.875 62.15 40.055 62.855C40.1 62.99 40.13 63.2 40.145 63.425C40.145 63.47 40.115 63.5 40.07 63.5H37.025C36.98 63.5 36.95 63.47 36.965 63.425C36.98 63.17 37.01 62.96 37.085 62.765C37.28 62.12 37.76 61.715 38.525 61.715ZM44.4952 59.285C45.1102 59.285 45.5602 58.835 45.5602 58.22C45.5602 57.59 45.1102 57.155 44.4952 57.155C43.8802 57.155 43.4302 57.59 43.4302 58.22C43.4302 58.835 43.8802 59.285 44.4952 59.285ZM43.7752 68H45.1552C45.2602 68 45.3352 67.925 45.3352 67.82V60.5C45.3352 60.395 45.2602 60.32 45.1552 60.32H43.7752C43.6702 60.32 43.5952 60.395 43.5952 60.5V67.82C43.5952 67.925 43.6702 68 43.7752 68ZM49.3984 68H50.9734C51.0784 68 51.1384 67.94 51.1684 67.85L53.5684 60.56C53.6134 60.425 53.5384 60.35 53.4184 60.35L51.8884 60.32C51.7834 60.32 51.7084 60.38 51.6784 60.47L50.2234 65.48C50.2084 65.54 50.1484 65.54 50.1334 65.48L48.6784 60.47C48.6484 60.38 48.5734 60.32 48.4684 60.32H46.9384C46.8184 60.32 46.7434 60.395 46.7884 60.53L49.2034 67.85C49.2334 67.94 49.2934 68 49.3984 68ZM60.9419 63.305C60.7169 61.415 59.7269 60.215 57.6119 60.215C56.0369 60.215 54.8819 61.1 54.4769 62.48C54.3269 62.945 54.2819 63.5 54.2969 64.115C54.2969 64.91 54.4019 65.585 54.6419 66.14C55.1369 67.37 56.2019 68.105 57.7619 68.135C59.0519 68.15 60.1469 67.64 60.7769 66.755C60.8369 66.665 60.8219 66.59 60.7319 66.515L59.8019 65.75C59.7119 65.675 59.6219 65.69 59.5469 65.795C59.1869 66.305 58.6619 66.635 57.9269 66.635C56.9669 66.62 56.3969 66.215 56.1719 65.54C56.0969 65.375 56.0669 65.15 56.0369 64.865C56.0369 64.82 56.0669 64.79 56.1119 64.79H60.8069C60.9119 64.79 60.9869 64.73 60.9869 64.61C61.0019 64.13 61.0019 63.725 60.9419 63.305ZM57.6119 61.715C58.4219 61.715 58.9619 62.15 59.1419 62.855C59.1869 62.99 59.2169 63.2 59.2319 63.425C59.2319 63.47 59.2019 63.5 59.1569 63.5H56.1119C56.0669 63.5 56.0369 63.47 56.0519 63.425C56.0669 63.17 56.0969 62.96 56.1719 62.765C56.3669 62.12 56.8469 61.715 57.6119 61.715Z"
        fill="white" />
</svg>