<svg width="120" height="120" viewBox="0 0 120 120" fill="none" xmlns="http://www.w3.org/2000/svg">
    <path
        d="M68.8728 26.7188H50.6583C50.0496 26.7188 49.5619 27.2386 49.5487 27.8849C49.1806 46.0494 40.2313 63.2897 24.8277 75.5012C24.3387 75.8886 24.2273 76.617 24.5848 77.1416L35.2419 92.7894C35.6044 93.3219 36.3108 93.4421 36.8081 93.0509C46.4396 85.4654 54.1866 76.3146 59.7656 66.1719C65.3445 76.3146 73.092 85.4654 82.7235 93.0509C83.2203 93.4421 83.9267 93.3219 84.2897 92.7894L94.9468 77.1416C95.3038 76.617 95.1924 75.8886 94.7038 75.5012C79.2998 63.2897 70.3505 46.0494 69.9829 27.8849C69.9696 27.2386 69.4815 26.7188 68.8728 26.7188Z"
        fill="white" />
    <path
        d="M94.3751 38.2765L92.3941 32.156C91.9911 30.9135 91.0096 29.9456 89.7602 29.5629L83.6101 27.6721C82.7614 27.4109 82.7524 26.2112 83.5988 25.9388L89.7175 23.9579C90.9601 23.555 91.9304 22.5713 92.3131 21.3242L94.2017 15.1745C94.4629 14.3236 95.6628 14.3146 95.9374 15.161L97.9184 21.2814C98.3214 22.524 99.3029 23.4919 100.552 23.8769L106.702 25.7655C107.551 26.0266 107.56 27.2264 106.714 27.501L100.595 29.4819C99.3524 29.8825 98.3822 30.8662 97.9994 32.1155L96.1107 38.263C95.8496 39.1139 94.6497 39.1229 94.3751 38.2765Z"
        fill="white" />
</svg>