<svg width="110" height="67" viewBox="0 0 110 67" fill="none" xmlns="http://www.w3.org/2000/svg">
    <path
        d="M28.3755 3.588H25.0755C24.9915 3.588 24.9315 3.648 24.9315 3.732V11.856C24.9315 11.94 24.9915 12 25.0755 12H26.1795C26.2635 12 26.3235 11.94 26.3235 11.856V8.628C26.3235 8.592 26.3475 8.568 26.3835 8.568H28.3035C29.8755 8.568 30.9195 7.584 30.9195 6.096C30.9195 4.596 29.8995 3.588 28.3755 3.588ZM28.1715 7.44H26.3835C26.3475 7.44 26.3235 7.416 26.3235 7.38V4.848C26.3235 4.812 26.3475 4.788 26.3835 4.788H28.1715C28.9875 4.788 29.5275 5.328 29.5275 6.132C29.5275 6.912 28.9875 7.44 28.1715 7.44ZM34.3076 12.096C35.5436 12.096 36.4916 11.412 36.8516 10.272C36.9836 9.876 37.0556 9.396 37.0556 8.904C37.0556 8.424 36.9836 7.92 36.8396 7.536C36.4676 6.432 35.5436 5.772 34.3196 5.772C33.0356 5.772 32.0876 6.432 31.7156 7.548C31.5956 7.92 31.5236 8.424 31.5236 8.916C31.5236 9.396 31.6076 9.9 31.7276 10.284C32.0876 11.412 33.0476 12.096 34.3076 12.096ZM34.3076 10.896C33.6836 10.896 33.2276 10.536 33.0476 9.936C32.9756 9.684 32.9276 9.3 32.9276 8.928C32.9276 8.532 32.9756 8.172 33.0476 7.92C33.2396 7.32 33.6836 6.972 34.2836 6.972C34.9076 6.972 35.3516 7.32 35.5316 7.92C35.6156 8.172 35.6516 8.532 35.6516 8.928C35.6516 9.288 35.6156 9.66 35.5316 9.936C35.3396 10.536 34.8956 10.896 34.3076 10.896ZM39.5188 12H40.6588C40.7428 12 40.8028 11.964 40.8268 11.88L41.7988 8.22C41.8108 8.172 41.8588 8.172 41.8708 8.22L42.9268 11.88C42.9508 11.952 43.0108 12 43.0948 12H44.2468C44.3308 12 44.3788 11.952 44.4028 11.88L46.1308 6.036C46.1549 5.94 46.1068 5.88 46.0108 5.88L44.8828 5.856C44.7988 5.856 44.7388 5.892 44.7148 5.976L43.6468 9.984C43.6348 10.032 43.5868 10.032 43.5748 9.984L42.5068 5.976C42.4828 5.892 42.4228 5.856 42.3388 5.856H41.3428C41.2588 5.856 41.1988 5.892 41.1748 5.976L40.1308 9.984C40.1188 10.032 40.0708 10.032 40.0588 9.984L39.0628 5.976C39.0388 5.892 38.9788 5.856 38.8948 5.856H37.7548C37.6588 5.856 37.6108 5.928 37.6348 6.024L39.3508 11.88C39.3748 11.952 39.4348 12 39.5188 12ZM52.0396 8.244C51.8596 6.732 51.0676 5.772 49.3756 5.772C48.1156 5.772 47.1916 6.48 46.8676 7.584C46.7476 7.956 46.7116 8.4 46.7236 8.892C46.7236 9.528 46.8076 10.068 46.9996 10.512C47.3956 11.496 48.2476 12.084 49.4956 12.108C50.5276 12.12 51.4036 11.712 51.9076 11.004C51.9556 10.932 51.9436 10.872 51.8716 10.812L51.1276 10.2C51.0556 10.14 50.9836 10.152 50.9236 10.236C50.6356 10.644 50.2156 10.908 49.6276 10.908C48.8596 10.896 48.4036 10.572 48.2236 10.032C48.1636 9.9 48.1396 9.72 48.1156 9.492C48.1156 9.456 48.1396 9.432 48.1756 9.432H51.9316C52.0156 9.432 52.0756 9.384 52.0756 9.288C52.0876 8.904 52.0876 8.58 52.0396 8.244ZM49.3756 6.972C50.0236 6.972 50.4556 7.32 50.5996 7.884C50.6356 7.992 50.6596 8.16 50.6716 8.34C50.6716 8.376 50.6476 8.4 50.6116 8.4H48.1756C48.1396 8.4 48.1156 8.376 48.1276 8.34C48.1396 8.136 48.1636 7.968 48.2236 7.812C48.3796 7.296 48.7636 6.972 49.3756 6.972ZM56.2158 5.796C55.5798 5.796 55.1238 6.096 54.8118 6.576C54.7878 6.624 54.7518 6.612 54.7518 6.552V6.012C54.7518 5.928 54.6918 5.868 54.6078 5.868H53.5038C53.4198 5.868 53.3598 5.928 53.3598 6.012V11.856C53.3598 11.94 53.4198 12 53.5038 12H54.6078C54.6918 12 54.7518 11.94 54.7518 11.856V8.46C54.7518 7.728 55.2798 7.284 55.9278 7.248C56.1918 7.212 56.4318 7.236 56.5878 7.296C56.6838 7.332 56.7438 7.308 56.7558 7.212L56.9598 6.132C56.9718 6.06 56.9598 5.988 56.8878 5.952C56.7318 5.868 56.5278 5.796 56.2158 5.796ZM62.9263 8.244C62.7463 6.732 61.9543 5.772 60.2623 5.772C59.0023 5.772 58.0783 6.48 57.7543 7.584C57.6343 7.956 57.5983 8.4 57.6103 8.892C57.6103 9.528 57.6943 10.068 57.8863 10.512C58.2823 11.496 59.1343 12.084 60.3823 12.108C61.4143 12.12 62.2903 11.712 62.7943 11.004C62.8423 10.932 62.8303 10.872 62.7583 10.812L62.0143 10.2C61.9423 10.14 61.8703 10.152 61.8103 10.236C61.5223 10.644 61.1023 10.908 60.5143 10.908C59.7463 10.896 59.2903 10.572 59.1103 10.032C59.0503 9.9 59.0263 9.72 59.0023 9.492C59.0023 9.456 59.0263 9.432 59.0623 9.432H62.8183C62.9023 9.432 62.9623 9.384 62.9623 9.288C62.9743 8.904 62.9743 8.58 62.9263 8.244ZM60.2623 6.972C60.9103 6.972 61.3423 7.32 61.4863 7.884C61.5223 7.992 61.5463 8.16 61.5583 8.34C61.5583 8.376 61.5343 8.4 61.4983 8.4H59.0623C59.0263 8.4 59.0023 8.376 59.0143 8.34C59.0263 8.136 59.0503 7.968 59.1103 7.812C59.2663 7.296 59.6503 6.972 60.2623 6.972ZM68.0505 3.744V6.348C68.0505 6.396 68.0145 6.408 67.9785 6.372C67.6425 5.988 67.1865 5.772 66.6225 5.772C65.3985 5.772 64.6305 6.432 64.2945 7.452C64.1505 7.884 64.0905 8.376 64.0905 8.916C64.0905 9.468 64.1625 9.972 64.3065 10.416C64.6545 11.46 65.4465 12.096 66.5985 12.096C67.1745 12.096 67.6425 11.868 67.9785 11.472C68.0145 11.424 68.0505 11.448 68.0505 11.496V11.856C68.0505 11.94 68.1105 12 68.1945 12H69.2985C69.3825 12 69.4425 11.94 69.4425 11.856V3.744C69.4425 3.66 69.3825 3.6 69.2985 3.6H68.1945C68.1105 3.6 68.0505 3.66 68.0505 3.744ZM67.7625 10.32C67.5465 10.692 67.2345 10.896 66.8145 10.896C66.3585 10.896 66.0105 10.692 65.7945 10.32C65.6145 9.984 65.5065 9.516 65.5065 8.94C65.5065 8.304 65.6385 7.812 65.8665 7.476C66.0945 7.14 66.4065 6.972 66.8265 6.972C67.2225 6.972 67.5225 7.152 67.7385 7.5C67.9425 7.836 68.0385 8.316 68.0385 8.928C68.0385 9.516 67.9425 9.996 67.7625 10.32ZM78.524 7.452C78.176 6.432 77.408 5.772 76.196 5.772C75.62 5.772 75.164 5.988 74.828 6.384C74.792 6.42 74.756 6.396 74.756 6.348V3.744C74.756 3.66 74.696 3.6 74.612 3.6H73.508C73.424 3.6 73.364 3.66 73.364 3.744V11.856C73.364 11.94 73.424 12 73.508 12H74.612C74.696 12 74.756 11.94 74.756 11.856V11.484C74.756 11.436 74.792 11.412 74.828 11.46C75.164 11.856 75.632 12.096 76.208 12.096C77.36 12.096 78.152 11.46 78.5 10.416C78.656 9.972 78.728 9.468 78.728 8.916C78.728 8.376 78.656 7.884 78.524 7.452ZM77.012 10.32C76.808 10.692 76.448 10.896 75.992 10.896C75.572 10.896 75.26 10.692 75.056 10.32C74.864 9.996 74.78 9.516 74.78 8.928C74.78 8.316 74.876 7.836 75.08 7.5C75.284 7.152 75.584 6.972 75.98 6.972C76.4 6.972 76.724 7.14 76.94 7.476C77.168 7.812 77.3 8.304 77.3 8.94C77.3 9.516 77.204 9.984 77.012 10.32ZM79.7242 14.388H79.8082C81.6202 14.388 82.0402 13.92 82.5922 12.336L84.7042 6.024C84.7402 5.916 84.6922 5.856 84.5962 5.856H83.4562C83.3722 5.856 83.3122 5.904 83.2882 5.976L82.0882 10.2C82.0762 10.248 82.0282 10.248 82.0162 10.2L80.8162 5.976C80.7922 5.904 80.7322 5.856 80.6482 5.856H79.4722C79.3762 5.856 79.3282 5.916 79.3642 6.024L81.3442 11.964C81.3562 12 81.3562 12.012 81.3442 12.036C81.0682 13.032 80.7202 13.224 79.7962 13.236H79.7242C79.6762 13.236 79.6402 13.296 79.6402 13.38V14.244C79.6402 14.328 79.6762 14.388 79.7242 14.388Z"
        fill="white" />
    <g clip-path="url(#clip0_2196_31055)">
        <path
            d="M38.5519 47.4389C38.5519 58.0599 29.9377 66.6697 19.3114 66.6697C8.68506 66.6697 0.070343 58.0599 0.070343 47.4389C0.070343 36.8179 8.68506 28.2081 19.3114 28.2081C29.9377 28.2081 38.5519 36.8179 38.5519 47.4389Z"
            fill="#29296E" />
        <path
            d="M28.2647 42.2966L27.7754 40.7858C27.676 40.4786 27.4333 40.2395 27.1248 40.1452L25.6058 39.6783C25.3956 39.6141 25.3939 39.3176 25.6024 39.2501L27.1146 38.761C27.4214 38.6616 27.6607 38.4191 27.7555 38.1107L28.2221 36.5925C28.2863 36.383 28.5829 36.3807 28.6505 36.5897L29.1398 38.1005C29.2393 38.4072 29.4819 38.6463 29.7905 38.7412L31.3094 39.2075C31.5197 39.2722 31.5219 39.5681 31.3128 39.6357L29.8007 40.1247C29.4938 40.2241 29.2546 40.4672 29.1597 40.7756L28.6932 42.2932C28.629 42.5034 28.3323 42.5056 28.2647 42.2966Z"
            fill="#FAFAFA" />
        <path
            d="M1.8201 47.134C2.27755 46.2383 3.1822 45.5636 4.1221 45.1371C5.07165 44.7151 6.11553 44.4561 7.14065 44.372C9.21023 44.1852 11.2264 44.531 13.063 45.1291C14.0091 45.4108 14.8558 45.8022 15.7304 46.1975C16.1554 46.4019 16.5549 46.6337 16.9663 46.8574L18.1028 47.5157C19.3507 48.2802 20.5605 48.9572 21.697 49.4831C22.8364 50.0045 23.866 50.3572 24.8366 50.5373C25.8072 50.7196 26.7937 50.7173 28.0069 50.439C29.2105 50.167 30.5646 49.5803 31.9801 48.8277C33.4042 48.0746 34.8646 47.1511 36.5307 46.2486C36.3636 48.1348 35.8295 49.9034 34.9953 51.6113C34.1406 53.2987 32.9518 54.9447 31.2187 56.2777C29.5185 57.6215 27.1835 58.5581 24.8065 58.699C22.4284 58.8597 20.1661 58.336 18.2415 57.5483C16.3094 56.7491 14.6399 55.699 13.1602 54.5397C12.7516 54.2194 12.5322 54.0377 12.2305 53.7826L11.3878 53.0449C10.8201 52.6007 10.27 52.0697 9.70802 51.6295C8.58686 50.6929 7.47763 49.7546 6.26157 48.9413C5.64842 48.5278 5.01596 48.1444 4.29882 47.8048C3.94253 47.6407 3.56407 47.4879 3.15777 47.3675C2.74181 47.2317 2.31903 47.1511 1.8201 47.134Z"
            fill="#FF4F0A" />
        <path
            d="M1.8201 47.1338C2.05365 45.1931 2.95888 43.3728 4.40963 41.8234C5.85299 40.2887 8.10782 39.1056 10.6098 38.9489C11.8447 38.8665 13.0982 39.004 14.2506 39.3232C15.3979 39.6412 16.4731 40.1047 17.4419 40.6505C17.9261 40.9248 18.379 41.2247 18.8302 41.5274L20.0326 42.4373L21.9095 43.9174C23.1279 44.887 24.2905 45.7838 25.3651 46.5244C26.4499 47.2662 27.3739 47.808 28.2564 48.1255C29.1309 48.472 30.2356 48.5606 31.696 48.1937C32.4211 48.0267 33.1774 47.7217 33.9844 47.3911C34.7867 47.0526 35.6198 46.6488 36.5307 46.2484C36.421 47.2241 36.2227 48.1959 35.846 49.1041C35.484 50.0248 35.0072 50.9256 34.3407 51.7656C33.9997 52.1745 33.6343 52.5857 33.2081 52.9651C32.7819 53.3355 32.3097 53.687 31.7881 53.9954C30.7476 54.598 29.5133 55.0382 28.2473 55.195C26.9812 55.354 25.71 55.2745 24.5525 55.0291C23.3887 54.7906 22.3284 54.4061 21.3549 53.9619C19.4149 53.06 17.792 51.9263 16.3571 50.7262C15.6366 50.127 14.961 49.5011 14.3211 48.8656L13.5653 48.1073C13.3375 47.8875 13.1073 47.6666 12.8794 47.4644C11.9611 46.6528 11.1088 46.0325 10.17 45.6458C9.23808 45.2408 8.04531 45.0744 6.58206 45.3482C5.12449 45.6191 3.52543 46.2489 1.8201 47.1338Z"
            fill="#FAFAFA" />
        <path
            d="M9.50978 57.1423C9.50978 57.7165 9.04381 58.1822 8.46931 58.1822C7.8948 58.1822 7.42941 57.7165 7.42941 57.1423C7.42941 56.5681 7.8948 56.1023 8.46931 56.1023C9.04381 56.1023 9.50978 56.5681 9.50978 57.1423Z"
            fill="#FAFAFA" />
        <path
            d="M9.50978 57.1423C9.50978 57.7165 9.04381 58.1822 8.46931 58.1822C7.8948 58.1822 7.42941 57.7165 7.42941 57.1423C7.42941 56.5681 7.8948 56.1023 8.46931 56.1023C9.04381 56.1023 9.50978 56.5681 9.50978 57.1423Z"
            fill="#FAFAFA" />
    </g>
    <g clip-path="url(#clip1_2196_31055)">
        <path
            d="M86.5494 51.0071C88.7625 51.0071 90.5565 49.2131 90.5565 47C90.5565 44.7869 88.7625 42.9929 86.5494 42.9929C84.3363 42.9929 82.5423 44.7869 82.5423 47C82.5423 49.2131 84.3363 51.0071 86.5494 51.0071Z"
            fill="#61DAFB" />
        <path
            d="M86.5494 55.2097C98.4245 55.2097 108.051 51.5341 108.051 47C108.051 42.4659 98.4245 38.7903 86.5494 38.7903C74.6743 38.7903 65.0477 42.4659 65.0477 47C65.0477 51.5341 74.6743 55.2097 86.5494 55.2097Z"
            stroke="#61DAFB" />
        <path
            d="M79.4396 51.1049C85.3771 61.389 93.3736 67.8881 97.3003 65.621C101.227 63.354 99.5968 53.1792 93.6593 42.8951C87.7217 32.611 79.7252 26.1119 75.7986 28.379C71.8719 30.646 73.502 40.8207 79.4396 51.1049Z"
            stroke="#61DAFB" />
        <path
            d="M79.4396 42.8951C73.502 53.1792 71.8719 63.354 75.7986 65.621C79.7252 67.8881 87.7217 61.389 93.6593 51.1049C99.5968 40.8207 101.227 30.646 97.3003 28.379C93.3736 26.1119 85.3771 32.611 79.4396 42.8951Z"
            stroke="#61DAFB" />
    </g>
    <defs>
        <clipPath id="clip0_2196_31055">
            <rect width="40" height="40" fill="white" transform="translate(0.070343 27)" />
        </clipPath>
        <clipPath id="clip1_2196_31055">
            <rect width="44.9581" height="40" fill="white" transform="translate(64.0703 27)" />
        </clipPath>
    </defs>
</svg>