<svg width="185" height="54" viewBox="0 0 185 54" fill="none" xmlns="http://www.w3.org/2000/svg">
    <rect width="185" height="54" rx="27" fill="#FF875B" />
    <path
        d="M78.124 34.136C80.742 34.136 82.34 32.844 82.34 30.804C82.34 28.628 80.385 27.914 78.651 27.251C76.696 26.537 75.88 26.197 75.88 25.16C75.88 24.208 76.594 23.664 77.852 23.664C79.45 23.664 80.317 24.548 80.317 25.568V25.755C80.317 25.874 80.402 25.959 80.521 25.959H82.051C82.17 25.959 82.255 25.874 82.255 25.755V25.466C82.255 23.375 80.521 21.964 77.937 21.964C75.54 21.964 73.942 23.171 73.942 25.194C73.942 27.353 75.795 28.084 77.648 28.764C79.484 29.478 80.368 29.869 80.368 30.855C80.368 31.722 79.739 32.436 78.277 32.436C76.628 32.436 75.676 31.62 75.676 30.617V30.294C75.676 30.175 75.591 30.09 75.472 30.09H73.959C73.84 30.09 73.755 30.175 73.755 30.294V30.719C73.755 32.793 75.438 34.136 78.124 34.136ZM91.466 28.679C91.211 26.537 90.089 25.177 87.692 25.177C85.907 25.177 84.598 26.18 84.139 27.744C83.969 28.271 83.918 28.9 83.935 29.597C83.935 30.498 84.054 31.263 84.326 31.892C84.887 33.286 86.094 34.119 87.862 34.153C89.324 34.17 90.565 33.592 91.279 32.589C91.347 32.487 91.33 32.402 91.228 32.317L90.174 31.45C90.072 31.365 89.97 31.382 89.885 31.501C89.477 32.079 88.882 32.453 88.049 32.453C86.961 32.436 86.315 31.977 86.06 31.212C85.975 31.025 85.941 30.77 85.907 30.447C85.907 30.396 85.941 30.362 85.992 30.362H91.313C91.432 30.362 91.517 30.294 91.517 30.158C91.534 29.614 91.534 29.155 91.466 28.679ZM87.692 26.877C88.61 26.877 89.222 27.37 89.426 28.169C89.477 28.322 89.511 28.56 89.528 28.815C89.528 28.866 89.494 28.9 89.443 28.9H85.992C85.941 28.9 85.907 28.866 85.924 28.815C85.941 28.526 85.975 28.288 86.06 28.067C86.281 27.336 86.825 26.877 87.692 26.877ZM97.5012 25.177C96.6002 25.177 95.8692 25.466 95.3932 26.095C95.3592 26.163 95.3082 26.129 95.3082 26.061V25.517C95.3082 25.398 95.2232 25.313 95.1042 25.313H93.5402C93.4212 25.313 93.3362 25.398 93.3362 25.517V33.796C93.3362 33.915 93.4212 34 93.5402 34H95.1042C95.2232 34 95.3082 33.915 95.3082 33.796V28.611C95.3082 27.574 95.9712 26.877 96.9402 26.877C97.9262 26.877 98.5552 27.591 98.5552 28.628V33.796C98.5552 33.915 98.6402 34 98.7592 34H100.323C100.442 34 100.527 33.915 100.527 33.796V28.22C100.527 26.333 99.3372 25.177 97.5012 25.177ZM107.906 22.304V25.993C107.906 26.061 107.855 26.078 107.804 26.027C107.328 25.483 106.682 25.177 105.883 25.177C104.149 25.177 103.061 26.112 102.585 27.557C102.381 28.169 102.296 28.866 102.296 29.631C102.296 30.413 102.398 31.127 102.602 31.756C103.095 33.235 104.217 34.136 105.849 34.136C106.665 34.136 107.328 33.813 107.804 33.252C107.855 33.184 107.906 33.218 107.906 33.286V33.796C107.906 33.915 107.991 34 108.11 34H109.674C109.793 34 109.878 33.915 109.878 33.796V22.304C109.878 22.185 109.793 22.1 109.674 22.1H108.11C107.991 22.1 107.906 22.185 107.906 22.304ZM107.498 31.62C107.192 32.147 106.75 32.436 106.155 32.436C105.509 32.436 105.016 32.147 104.71 31.62C104.455 31.144 104.302 30.481 104.302 29.665C104.302 28.764 104.489 28.067 104.812 27.591C105.135 27.115 105.577 26.877 106.172 26.877C106.733 26.877 107.158 27.132 107.464 27.625C107.753 28.101 107.889 28.781 107.889 29.648C107.889 30.481 107.753 31.161 107.498 31.62Z"
        fill="white" />
</svg>