<svg width="71" height="72" viewBox="0 0 71 72" fill="none" xmlns="http://www.w3.org/2000/svg">
    <circle cx="35.5" cy="20" r="20" fill="#F36A3D" />
    <g clip-path="url(#clip0_2196_30842)">
        <path
            d="M25.6449 17.5896C25.4411 17.809 25.4538 18.152 25.6733 18.3558C25.7027 18.3831 25.7351 18.4071 25.7699 18.4273L31.8341 21.9372L39.25 16.25L33.5606 23.6622L37.0712 29.7286C37.2208 29.988 37.5524 30.077 37.8117 29.9274C37.9271 29.8608 38.014 29.7541 38.0557 29.6276L43.8045 12.3792C43.8985 12.0949 43.7443 11.7882 43.4601 11.6941C43.3495 11.6575 43.23 11.6575 43.1194 11.6941L25.871 17.4428C25.7844 17.472 25.7067 17.5224 25.6449 17.5896Z"
            fill="white" />
    </g>
    <path
        d="M23.2565 68.12C25.5665 68.12 26.9765 66.98 26.9765 65.18C26.9765 63.26 25.2515 62.63 23.7215 62.045C21.9965 61.415 21.2765 61.115 21.2765 60.2C21.2765 59.36 21.9065 58.88 23.0165 58.88C24.4265 58.88 25.1915 59.66 25.1915 60.56V60.725C25.1915 60.83 25.2665 60.905 25.3715 60.905H26.7215C26.8265 60.905 26.9015 60.83 26.9015 60.725V60.47C26.9015 58.625 25.3715 57.38 23.0915 57.38C20.9765 57.38 19.5665 58.445 19.5665 60.23C19.5665 62.135 21.2015 62.78 22.8365 63.38C24.4565 64.01 25.2365 64.355 25.2365 65.225C25.2365 65.99 24.6815 66.62 23.3915 66.62C21.9365 66.62 21.0965 65.9 21.0965 65.015V64.73C21.0965 64.625 21.0215 64.55 20.9165 64.55H19.5815C19.4765 64.55 19.4015 64.625 19.4015 64.73V65.105C19.4015 66.935 20.8865 68.12 23.2565 68.12ZM35.0288 63.305C34.8038 61.415 33.8138 60.215 31.6988 60.215C30.1238 60.215 28.9688 61.1 28.5638 62.48C28.4138 62.945 28.3688 63.5 28.3838 64.115C28.3838 64.91 28.4888 65.585 28.7288 66.14C29.2238 67.37 30.2888 68.105 31.8488 68.135C33.1388 68.15 34.2338 67.64 34.8638 66.755C34.9238 66.665 34.9088 66.59 34.8188 66.515L33.8888 65.75C33.7988 65.675 33.7088 65.69 33.6338 65.795C33.2738 66.305 32.7488 66.635 32.0138 66.635C31.0538 66.62 30.4838 66.215 30.2588 65.54C30.1838 65.375 30.1538 65.15 30.1238 64.865C30.1238 64.82 30.1538 64.79 30.1988 64.79H34.8938C34.9988 64.79 35.0738 64.73 35.0738 64.61C35.0888 64.13 35.0888 63.725 35.0288 63.305ZM31.6988 61.715C32.5088 61.715 33.0488 62.15 33.2288 62.855C33.2738 62.99 33.3038 63.2 33.3188 63.425C33.3188 63.47 33.2888 63.5 33.2438 63.5H30.1988C30.1538 63.5 30.1238 63.47 30.1388 63.425C30.1538 63.17 30.1838 62.96 30.2588 62.765C30.4538 62.12 30.9338 61.715 31.6988 61.715ZM40.354 60.215C39.559 60.215 38.914 60.47 38.494 61.025C38.464 61.085 38.419 61.055 38.419 60.995V60.515C38.419 60.41 38.344 60.335 38.239 60.335H36.859C36.754 60.335 36.679 60.41 36.679 60.515V67.82C36.679 67.925 36.754 68 36.859 68H38.239C38.344 68 38.419 67.925 38.419 67.82V63.245C38.419 62.33 39.004 61.715 39.859 61.715C40.729 61.715 41.284 62.345 41.284 63.26V67.82C41.284 67.925 41.359 68 41.464 68H42.844C42.949 68 43.024 67.925 43.024 67.82V62.9C43.024 61.235 41.974 60.215 40.354 60.215ZM49.5346 57.68V60.935C49.5346 60.995 49.4896 61.01 49.4446 60.965C49.0246 60.485 48.4546 60.215 47.7496 60.215C46.2196 60.215 45.2596 61.04 44.8396 62.315C44.6596 62.855 44.5846 63.47 44.5846 64.145C44.5846 64.835 44.6746 65.465 44.8546 66.02C45.2896 67.325 46.2796 68.12 47.7196 68.12C48.4396 68.12 49.0246 67.835 49.4446 67.34C49.4896 67.28 49.5346 67.31 49.5346 67.37V67.82C49.5346 67.925 49.6096 68 49.7146 68H51.0946C51.1996 68 51.2746 67.925 51.2746 67.82V57.68C51.2746 57.575 51.1996 57.5 51.0946 57.5H49.7146C49.6096 57.5 49.5346 57.575 49.5346 57.68ZM49.1746 65.9C48.9046 66.365 48.5146 66.62 47.9896 66.62C47.4196 66.62 46.9846 66.365 46.7146 65.9C46.4896 65.48 46.3546 64.895 46.3546 64.175C46.3546 63.38 46.5196 62.765 46.8046 62.345C47.0896 61.925 47.4796 61.715 48.0046 61.715C48.4996 61.715 48.8746 61.94 49.1446 62.375C49.3996 62.795 49.5196 63.395 49.5196 64.16C49.5196 64.895 49.3996 65.495 49.1746 65.9Z"
        fill="white" />
    <defs>
        <clipPath id="clip0_2196_30842">
            <rect width="20" height="20" fill="white" transform="translate(25.5 10)" />
        </clipPath>
    </defs>
</svg>